<?xml version="1.0" standalone="no"?>
<!DOCTYPE svg PUBLIC "-//W3C//DTD SVG 20010904//EN"
 "http://www.w3.org/TR/2001/REC-SVG-20010904/DTD/svg10.dtd">
<svg version="1.0" xmlns="http://www.w3.org/2000/svg"
 width="356.000000pt" height="80.000000pt" viewBox="0 0 356.000000 80.000000"
 preserveAspectRatio="xMidYMid meet">

<g transform="translate(0.000000,80.000000) scale(0.100000,-0.100000)"
fill="#000000" stroke="none">
<path d="M10 405 l0 -395 1775 0 1775 0 -2 392 -3 393 -1772 2 -1773 3 0 -395z
m532 321 c70 -35 138 -104 175 -176 25 -49 28 -65 28 -155 0 -121 -18 -167
-94 -248 -73 -77 -144 -110 -251 -115 -70 -3 -95 0 -143 18 -89 34 -155 93
-200 179 -35 68 -37 78 -37 164 0 80 4 100 28 152 49 102 113 160 215 197 79
28 206 21 279 -16z m669 -2 c5 -3 9 -33 9 -68 l0 -63 -55 5 c-30 2 -67 -1 -82
-7 -99 -41 -102 -223 -6 -282 28 -18 44 -21 89 -16 l54 6 0 -114 0 -114 -54
-6 c-101 -13 -210 25 -265 92 -122 147 -94 432 52 528 53 36 132 56 196 50 29
-3 58 -8 62 -11z m1246 1 c63 -19 113 -71 139 -146 26 -76 27 -270 1 -354 -68
-220 -356 -220 -424 0 -27 91 -25 290 6 367 24 62 83 124 128 134 16 3 33 7
38 9 23 8 65 4 112 -10z m485 -6 c86 -22 130 -91 129 -201 0 -101 -28 -154
-101 -190 -42 -22 -68 -28 -117 -28 l-63 0 0 -115 0 -115 -69 0 -70 0 0 330 0
329 57 4 c73 5 186 -1 234 -14z m-1398 3 c5 -8 116 -621 116 -641 0 -8 -20
-11 -67 -9 l-68 3 -8 63 -9 62 -62 0 -63 0 -9 -62 -9 -63 -67 -3 c-38 -2 -68
1 -68 5 0 12 111 626 115 641 5 13 190 18 199 4z m376 -181 l75 -184 5 184 5
184 55 0 55 0 3 -327 2 -328 -78 0 -79 0 -84 193 -84 192 -3 -192 -2 -193 -55
0 -54 0 0 322 c1 178 3 326 6 331 2 4 39 7 81 5 l77 -3 75 -184z m1311 49 l46
-134 45 134 45 135 66 3 c37 2 67 1 67 -2 0 -2 -36 -100 -81 -217 l-80 -212 2
-111 2 -111 -67 -3 -66 -3 0 120 0 120 -75 198 c-41 109 -75 204 -75 211 0 10
16 12 63 10 l62 -3 46 -135z"/>
<path d="M304 726 c-106 -26 -185 -92 -233 -196 -21 -45 -26 -70 -26 -135 0
-71 4 -89 33 -147 60 -123 170 -191 307 -190 39 0 89 7 113 16 93 34 174 115
208 208 21 55 21 171 0 226 -59 162 -238 259 -402 218z m146 -168 c26 -60 21
-121 -12 -163 -30 -39 -84 -32 -115 14 -40 59 -27 139 32 209 l28 33 23 -21
c12 -12 32 -45 44 -72z m-203 -179 c17 -6 48 -28 67 -50 80 -88 22 -188 -80
-138 -54 25 -80 61 -95 127 -20 85 -3 94 108 61z m383 -24 c0 -57 -19 -102
-57 -138 -58 -54 -130 -52 -154 5 -11 27 -10 36 11 74 25 49 66 79 126 93 72
17 74 16 74 -34z"/>
<path d="M2343 574 c-7 -3 -22 -22 -35 -42 -18 -29 -22 -51 -22 -107 0 -106
33 -155 104 -155 98 0 137 204 55 286 -23 23 -69 31 -102 18z"/>
<path d="M2790 515 c0 -71 1 -75 25 -81 60 -15 113 36 100 96 -8 39 -40 60
-87 60 l-38 0 0 -75z"/>
<path d="M1427 477 c-10 -61 -17 -115 -17 -119 0 -5 16 -8 35 -8 25 0 35 5 35
15 0 21 -30 218 -34 222 -1 2 -10 -48 -19 -110z"/>
</g>
</svg>
